<?xml version="1.0" encoding="UTF-8"?>
<svg width="1024" height="1024" viewBox="0 0 1024 1024" xmlns="http://www.w3.org/2000/svg">
  <defs>
    <linearGradient id="borderGradient" x1="0%" y1="0%" x2="100%" y2="100%">
      <stop offset="0%" style="stop-color:#e863b8;stop-opacity:1" />
      <stop offset="25%" style="stop-color:#879ee4;stop-opacity:1" />
      <stop offset="50%" style="stop-color:#6bc0d1;stop-opacity:1" />
      <stop offset="75%" style="stop-color:#8cd1b0;stop-opacity:1" />
      <stop offset="100%" style="stop-color:#f0b06b;stop-opacity:1" />
    </linearGradient>
  </defs>
  
  <!-- Outer gradient border -->
  <rect width="1024" height="1024" rx="170" fill="url(#borderGradient)" />
  
  <!-- Inner white background -->
  <rect x="40" y="40" width="944" height="944" rx="130" fill="white" />
  
  <!-- Octopus body -->
  <g transform="translate(512, 410)">
    <!-- Tentacles -->
    <path d="M -170 68 Q -204 136 -256 272 Q -204 272 -170 204 Q -128 136 -170 68" 
          fill="#8ca68c" stroke="#334d40" stroke-width="8"/>
    <path d="M -85 51 Q -102 85 -128 204 Q -102 204 -85 170 Q -68 102 -85 51" 
          fill="#8ca68c" stroke="#334d40" stroke-width="8"/>
    <path d="M 85 51 Q 102 85 128 204 Q 102 204 85 170 Q 68 102 85 51" 
          fill="#8ca68c" stroke="#334d40" stroke-width="8"/>
    <path d="M 170 68 Q 204 136 256 272 Q 204 272 170 204 Q 128 136 170 68" 
          fill="#8ca68c" stroke="#334d40" stroke-width="8"/>
    <path d="M 0 102 Q 10 204 0 409 Q -10 204 0 102" 
          fill="#8ca68c" stroke="#334d40" stroke-width="8"/>
    
    <!-- Tentacle circles -->
    <circle cx="-204" cy="170" r="34" fill="#e6bf66" stroke="#334d40" stroke-width="4"/>
    <circle cx="-102" cy="146" r="29" fill="#e6bf66" stroke="#334d40" stroke-width="4"/>
    <circle cx="102" cy="146" r="29" fill="#e6bf66" stroke="#334d40" stroke-width="4"/>
    <circle cx="204" cy="170" r="34" fill="#e6bf66" stroke="#334d40" stroke-width="4"/>
    <circle cx="0" cy="204" r="29" fill="#e6bf66" stroke="#334d40" stroke-width="4"/>
    
    <!-- Main body -->
    <circle cx="0" cy="0" r="128" fill="#8ca68c" stroke="#334d40" stroke-width="12"/>
    
    <!-- Eyes -->
    <circle cx="-68" cy="-68" r="13" fill="#334d40"/>
    <circle cx="68" cy="-68" r="13" fill="#334d40"/>
    
    <!-- Smile -->
    <path d="M -51 34 Q 0 68 51 34" 
          stroke="#334d40" stroke-width="10" fill="none" stroke-linecap="round"/>
  </g>
</svg>